<svg width="54" height="53" viewBox="0 0 54 53" fill="none" xmlns="http://www.w3.org/2000/svg">
<g clip-path="url(#clip0_1_31)">
<path d="M20.25 46.375C20.25 47.5896 21.2625 48.5834 22.5 48.5834H31.5C32.7375 48.5834 33.75 47.5896 33.75 46.375V44.1667H20.25V46.375ZM27 4.41669C18.315 4.41669 11.25 11.3509 11.25 19.875C11.25 25.1309 13.9275 29.7463 18 32.5509V37.5417C18 38.7563 19.0125 39.75 20.25 39.75H33.75C34.9875 39.75 36 38.7563 36 37.5417V32.5509C40.0725 29.7463 42.75 25.1309 42.75 19.875C42.75 11.3509 35.685 4.41669 27 4.41669ZM31.5 30.2542V35.3334H22.5V30.2542C19.08 27.8913 15.75 25.4621 15.75 19.875C15.75 13.78 20.79 8.83335 27 8.83335C33.21 8.83335 38.25 13.78 38.25 19.875C38.25 25.3738 34.8525 27.9354 31.5 30.2542Z" fill="black"/>
</g>
<defs>
<clipPath id="clip0_1_31">
<rect width="54" height="53" fill="white"/>
</clipPath>
</defs>
</svg>
